# xmcd CD database file
#
# Track frame offsets:
#	182
#	17827
#	35507
#	51400
#	71012
#	87335
#	102707
#	119760
#	138295
#	154927
#	170262
#	187185
#	203452
#	219440
#
# Disc length: 3130 seconds
#
# Revision: 0
# Processed by: cddbd v1.5.2PL0 Copyright (c) Steve Scherf et al.
# Submitted via: CDex 2.12
#
DISCID=d00c380e
DTITLE=Giovanni - Lost Child -- Sire #61794
DYEAR=1995
DGENRE=New Age
TTITLE0=Lost Child
TTITLE1=The Best Is Yet to Come
TTITLE2=Girl in my eyes
TTITLE3=Need
TTITLE4=So Excited
TTITLE5=Only You (Gene Simmons)
TTITLE6=Suffer too much
TTITLE7=Different world
TTITLE8=So excited
TTITLE9=Solo en Ti
TTITLE10=Sufro por Ti
TTITLE11=Muero por Verte
TTITLE12=Chica en Mis Ojos
TTITLE13=Solo Tu
EXTD=YEAR: 1995
EXTT0=
EXTT1=
EXTT2=
EXTT3=
EXTT4=
EXTT5=
EXTT6=
EXTT7=
EXTT8=
EXTT9=
EXTT10=
EXTT11=
EXTT12=
EXTT13=
PLAYORDER=
